<svg width="367" height="59" viewBox="0 0 367 59" fill="none" xmlns="http://www.w3.org/2000/svg">
<g clip-path="url(#clip0)">
<path d="M231.26 45.413H243.767C250.144 45.413 255.294 42.4752 255.294 35.7429C255.294 32.6827 253.945 30.1121 250.879 28.6433C253.087 27.1744 254.313 25.0935 254.313 22.1557C254.313 16.6474 250.266 13.4648 243.522 13.4648H231.138V45.413H231.26ZM240.212 25.5831V21.0541H242.787C244.381 21.0541 245.116 21.9109 245.116 23.2574C245.116 24.6038 244.381 25.5831 242.909 25.5831H240.212ZM240.212 37.8238V32.6827H243.522C245.116 32.6827 245.975 33.9067 245.975 35.2532C245.975 36.4773 244.994 37.8238 243.4 37.8238H240.212Z" fill="#1A86FD"/>
<path d="M266.33 45.9027C269.272 45.9027 271.48 44.3114 272.338 43.0874V45.4131H280.921V21.4214H272.093V35.743C272.093 37.0894 271.234 38.3135 269.518 38.3135C268.046 38.3135 266.943 37.4567 266.943 35.6206V21.4214H258.114V36.8446C258.237 42.3529 260.689 45.9027 266.33 45.9027Z" fill="#1A86FD"/>
<path d="M309.859 12.4856H301.031V22.8902C300.173 22.1557 298.088 20.8092 294.9 20.8092C287.911 20.8092 283.619 25.9503 283.619 33.4171C283.619 40.7615 288.524 46.025 295.513 46.025C298.701 46.025 300.786 44.8009 301.644 43.9441V45.5354H309.859V12.4856ZM301.276 33.4171C301.276 36.1101 299.805 38.4358 296.862 38.4358C294.042 38.4358 292.447 36.4773 292.447 33.4171C292.447 30.4794 294.042 28.3985 296.862 28.3985C299.559 28.2761 301.276 30.2346 301.276 33.4171Z" fill="#1A86FD"/>
<path d="M338.92 12.4856H330.092V22.8902C329.233 22.1557 327.149 20.8092 323.961 20.8092C316.971 20.8092 312.68 25.9503 312.68 33.4171C312.68 40.7615 317.584 46.025 324.574 46.025C327.762 46.025 329.846 44.8009 330.705 43.9441V45.5354H338.92V12.4856ZM330.337 33.4171C330.337 36.1101 328.865 38.4358 325.923 38.4358C323.102 38.4358 321.508 36.4773 321.508 33.4171C321.508 30.4794 323.102 28.3985 325.923 28.3985C328.62 28.2761 330.337 30.2346 330.337 33.4171Z" fill="#1A86FD"/>
<path d="M355.106 53.4919L367 21.4214H357.804L354.125 33.7845L350.692 21.4214H341.25L350.201 44.5562L347.013 53.6143H355.106V53.4919Z" fill="#1A86FD"/>
<path d="M68.0538 45.413H78.4765C88.7765 45.413 95.5206 39.2927 95.5206 29.5001C95.5206 19.5852 88.7765 13.5873 78.4765 13.5873H68.0538V45.413ZM77.0051 37.7014V21.1765H78.1086C82.7682 21.1765 85.8337 23.8694 85.8337 29.5001C85.8337 35.0084 82.6455 37.8238 78.1086 37.8238H77.0051V37.7014ZM97.3599 33.0499C97.3599 40.0271 102.265 45.9026 110.48 45.9026C116.979 45.9026 120.412 41.7408 120.903 40.6391L114.894 36.4773C114.404 37.2117 112.81 38.5582 110.603 38.5582C108.396 38.5582 106.924 37.4566 106.434 35.6205H121.393C121.393 35.1308 121.516 34.5188 121.516 34.0292C121.516 25.5831 117.347 20.6868 109.377 20.6868C102.019 20.8092 97.3599 26.1951 97.3599 33.0499ZM106.679 30.357C106.802 29.5001 107.537 27.7864 109.622 27.7864C111.584 27.7864 112.442 29.2553 112.565 30.357H106.679ZM124.214 53.859H133.042V43.8217C133.9 44.5561 135.985 45.9026 139.173 45.9026C146.162 45.9026 150.454 40.7615 150.454 33.2947C150.454 25.9503 145.549 20.6868 138.56 20.6868C135.372 20.6868 133.287 21.9109 132.429 22.7678V21.1765H124.214V53.859ZM132.797 33.4171C132.797 30.7242 134.268 28.3985 137.211 28.3985C140.031 28.3985 141.626 30.357 141.626 33.4171C141.626 36.3549 140.031 38.4358 137.211 38.4358C134.636 38.4358 132.797 36.5997 132.797 33.4171ZM153.397 45.413H162.226V12.4856H153.397V45.413ZM191.777 33.4171C191.777 26.1951 186.014 20.8092 178.411 20.8092C170.809 20.8092 165.046 26.0727 165.046 33.4171C165.046 40.7615 170.809 46.025 178.411 46.025C186.014 46.025 191.777 40.6391 191.777 33.4171ZM173.874 33.4171C173.874 30.357 175.836 28.3985 178.411 28.3985C180.986 28.3985 182.948 30.357 182.948 33.4171C182.948 36.4773 180.986 38.4358 178.411 38.4358C175.836 38.4358 173.874 36.4773 173.874 33.4171ZM205.51 53.4918L217.404 21.4213H208.208L204.529 33.7844L201.096 21.4213H191.654L200.605 44.5561L197.417 53.6142H205.51V53.4918Z" fill="black"/>
<path fill-rule="evenodd" clip-rule="evenodd" d="M23.4203 1.46881C25.0144 0.61196 26.8537 0.61196 28.4477 1.46881C33.3525 4.28416 44.143 10.5269 49.0478 13.3422C50.6418 14.1991 51.6228 15.9128 51.6228 17.7489V41.3734C51.6228 43.2095 50.6418 44.8008 49.0478 45.78C44.143 48.5954 33.3525 54.8381 28.4477 57.6535C26.8537 58.5103 25.0144 58.5103 23.4203 57.6535C18.5155 54.8381 7.72503 48.5954 2.82025 45.78C1.22619 44.9232 0.245239 43.2095 0.245239 41.3734V17.6265C0.245239 15.7904 1.22619 14.1991 2.82025 13.2198C7.72503 10.5269 18.5155 4.28416 23.4203 1.46881Z" fill="#0DA7FE"/>
<mask id="mask0" mask-type="alpha" maskUnits="userSpaceOnUse" x="0" y="0" width="52" height="59">
<path fill-rule="evenodd" clip-rule="evenodd" d="M23.4203 1.46881C25.0144 0.61196 26.8537 0.61196 28.4477 1.46881C33.3525 4.28416 44.143 10.5269 49.0478 13.3422C50.6418 14.1991 51.6228 15.9128 51.6228 17.7489V41.3734C51.6228 43.2095 50.6418 44.8008 49.0478 45.78C44.143 48.5954 33.3525 54.8381 28.4477 57.6535C26.8537 58.5103 25.0144 58.5103 23.4203 57.6535C18.5155 54.8381 7.72503 48.5954 2.82025 45.78C1.22619 44.9232 0.245239 43.2095 0.245239 41.3734V17.6265C0.245239 15.7904 1.22619 14.1991 2.82025 13.2198C7.72503 10.5269 18.5155 4.28416 23.4203 1.46881Z" fill="white"/>
</mask>
<g mask="url(#mask0)">
<path fill-rule="evenodd" clip-rule="evenodd" d="M0 44.1886L13.6108 29.3774L25.9953 58.8774L0 44.1886Z" fill="#1A67FD"/>
<path fill-rule="evenodd" clip-rule="evenodd" d="M13.6108 29.4999L0.122619 14.6887L0 44.1887L13.6108 29.4999Z" fill="#0DA7FE"/>
<path fill-rule="evenodd" clip-rule="evenodd" d="M13.6108 29.5L25.9953 0L0.245239 14.6888L13.6108 29.5Z" fill="#05BBFF"/>
<path fill-rule="evenodd" clip-rule="evenodd" d="M25.9953 0L51.6227 44.1888L13.6107 29.5" fill="#00C9FF"/>
<path fill-rule="evenodd" clip-rule="evenodd" d="M25.9953 58.9998L51.6227 44.1886L13.6107 29.3774L25.9953 58.9998Z" fill="#1A86FD"/>
<path fill-rule="evenodd" clip-rule="evenodd" d="M51.6227 44.1888V14.6888L25.9952 0L51.6227 44.1888Z" fill="#05BBFF"/>
<path fill-rule="evenodd" clip-rule="evenodd" d="M22.1941 17.8716L34.5787 30.2347L22.1941 42.5977L18.8834 39.4152L28.0799 30.2347L18.8834 21.0542L22.1941 17.8716Z" fill="#1A67FD" fill-opacity="0.5"/>
<path fill-rule="evenodd" clip-rule="evenodd" d="M34.5787 28.7656L31.2679 25.583L19.006 37.9461L22.3167 41.1286L34.5787 28.7656Z" fill="#D6FFFF"/>
<path fill-rule="evenodd" clip-rule="evenodd" d="M22.1941 16.4023L18.8834 19.5849L31.268 31.948L34.5787 28.7654L22.1941 16.4023Z" fill="#D6FFFF"/>
</g>
</g>
<defs>
<clipPath id="clip0">
<rect width="367" height="59" fill="white"/>
</clipPath>
</defs>
</svg>
