<svg viewBox="0 0 50 56" xmlns="http://www.w3.org/2000/svg" xmlns:xlink="http://www.w3.org/1999/xlink"><defs><path d="M22.66.591a4.413 4.413 0 0 1 4.412 0l20.427 11.793a4.412 4.412 0 0 1 2.206 3.821v23.586a4.412 4.412 0 0 1-2.206 3.822L27.072 55.406a4.413 4.413 0 0 1-4.413 0L2.233 43.613A4.412 4.412 0 0 1 .026 39.79V16.205c0-1.576.841-3.033 2.207-3.82C6.945 9.662 17.947 3.311 22.659.59z" id="a"/><path d="M22.66.591a4.413 4.413 0 0 1 4.412 0l20.427 11.793a4.412 4.412 0 0 1 2.206 3.821v23.586a4.412 4.412 0 0 1-2.206 3.822L27.072 55.406a4.413 4.413 0 0 1-4.413 0L2.233 43.613A4.412 4.412 0 0 1 .026 39.79V16.205c0-1.576.841-3.033 2.207-3.82C6.945 9.662 17.947 3.311 22.659.59z" id="c"/><path d="M22.66.591a4.413 4.413 0 0 1 4.412 0l20.427 11.793a4.412 4.412 0 0 1 2.206 3.821v23.586a4.412 4.412 0 0 1-2.206 3.822L27.072 55.406a4.413 4.413 0 0 1-4.413 0L2.233 43.613A4.412 4.412 0 0 1 .026 39.79V16.205c0-1.576.841-3.033 2.207-3.82C6.945 9.662 17.947 3.311 22.659.59z" id="e"/><path d="M22.66.591a4.413 4.413 0 0 1 4.412 0l20.427 11.793a4.412 4.412 0 0 1 2.206 3.821v23.586a4.412 4.412 0 0 1-2.206 3.822L27.072 55.406a4.413 4.413 0 0 1-4.413 0L2.233 43.613A4.412 4.412 0 0 1 .026 39.79V16.205c0-1.576.841-3.033 2.207-3.82C6.945 9.662 17.947 3.311 22.659.59z" id="g"/><path d="M22.66.591a4.413 4.413 0 0 1 4.412 0l20.427 11.793a4.412 4.412 0 0 1 2.206 3.821v23.586a4.412 4.412 0 0 1-2.206 3.822L27.072 55.406a4.413 4.413 0 0 1-4.413 0L2.233 43.613A4.412 4.412 0 0 1 .026 39.79V16.205c0-1.576.841-3.033 2.207-3.82C6.945 9.662 17.947 3.311 22.659.59z" id="i"/><path d="M22.66.591a4.413 4.413 0 0 1 4.412 0l20.427 11.793a4.412 4.412 0 0 1 2.206 3.821v23.586a4.412 4.412 0 0 1-2.206 3.822L27.072 55.406a4.413 4.413 0 0 1-4.413 0L2.233 43.613A4.412 4.412 0 0 1 .026 39.79V16.205c0-1.576.841-3.033 2.207-3.82C6.945 9.662 17.947 3.311 22.659.59z" id="k"/><path d="M22.66.591a4.413 4.413 0 0 1 4.412 0l20.427 11.793a4.412 4.412 0 0 1 2.206 3.821v23.586a4.412 4.412 0 0 1-2.206 3.822L27.072 55.406a4.413 4.413 0 0 1-4.413 0L2.233 43.613A4.412 4.412 0 0 1 .026 39.79V16.205c0-1.576.841-3.033 2.207-3.82C6.945 9.662 17.947 3.311 22.659.59z" id="m"/></defs><g fill="none" fill-rule="evenodd"><mask id="b" fill="#fff"><use xlink:href="#a"/></mask><path d="M22.66.591a4.413 4.413 0 0 1 4.412 0l20.427 11.793a4.412 4.412 0 0 1 2.206 3.821v23.586a4.412 4.412 0 0 1-2.206 3.822L27.072 55.406a4.413 4.413 0 0 1-4.413 0L2.233 43.613A4.412 4.412 0 0 1 .026 39.79V16.205c0-1.576.841-3.033 2.207-3.82C6.945 9.662 17.947 3.311 22.659.59z" fill="#0DA7FE" fill-rule="nonzero" mask="url(#b)"/><mask id="d" fill="#fff"><use xlink:href="#c"/></mask><path fill="#1A67FD" fill-rule="nonzero" mask="url(#d)" d="M.026 42.342l12.902-14.344L24.866 56.68z"/><mask id="f" fill="#fff"><use xlink:href="#e"/></mask><path fill="#0DA7FE" fill-rule="nonzero" mask="url(#f)" d="M12.928 27.998L.2 13.558.026 42.341z"/><mask id="h" fill="#fff"><use xlink:href="#g"/></mask><path fill="#05BBFF" fill-rule="nonzero" mask="url(#h)" d="M12.928 27.998L24.866-.682.2 13.557z"/><mask id="j" fill="#fff"><use xlink:href="#i"/></mask><path fill="#00C9FF" fill-rule="nonzero" mask="url(#j)" d="M24.866-.683L49.705 42.34 12.928 28"/><mask id="l" fill="#fff"><use xlink:href="#k"/></mask><path fill="#1A86FD" fill-rule="nonzero" mask="url(#l)" d="M24.866 56.728l24.839-14.386-36.777-14.344z"/><mask id="n" fill="#fff"><use xlink:href="#m"/></mask><path fill="#05BBFF" fill-rule="nonzero" mask="url(#n)" d="M49.705 42.339V13.658L24.865-.682z"/><path fill-opacity=".5" fill="#1A67FD" fill-rule="nonzero" d="M30.116 25.578l3.153 3.153-1.565 1.565-1.588 1.588-8.877 8.877-3.153-3.153 8.877-8.877-8.877-8.876 3.153-3.153z"/><path fill="#D6FFFF" fill-rule="nonzero" d="M33.269 27.316l-3.153-3.153-12.03 12.03 3.153 3.153z"/><path fill="#D6FFFF" fill-rule="nonzero" d="M21.239 15.286l-3.153 3.153 12.03 12.03 3.153-3.153z"/></g></svg>